<?xml version="1.0" encoding="utf-8"?>
<!-- Generator: Adobe Illustrator 24.0.1, SVG Export Plug-In . SVG Version: 6.00 Build 0)  -->
<svg version="1.1" id="Слой_1" xmlns="http://www.w3.org/2000/svg" xmlns:xlink="http://www.w3.org/1999/xlink" x="0px" y="0px"
	 viewBox="0 0 54 54" style="enable-background:new 0 0 54 54;" xml:space="preserve">
<style type="text/css">
	.st0{fill:#CCCCCC;}
</style>
<g>
	<path class="st0" d="M9.2,45c5.1,0,9.2-4.1,9.2-9.2c0-5.1-4.1-9.2-9.2-9.2c-5.1,0-9.2,4.1-9.2,9.2C0,40.9,4.1,45,9.2,45z M9.2,31.6
		c2.3,0,4.2,1.9,4.2,4.2S11.5,40,9.2,40S5,38.1,5,35.8S6.9,31.6,9.2,31.6z"/>
	<path class="st0" d="M35.6,35.8c0,5.1,4.1,9.2,9.2,9.2c5.1,0,9.2-4.1,9.2-9.2c0-5.1-4.1-9.2-9.2-9.2C39.7,26.6,35.6,30.7,35.6,35.8
		z M49,35.8c0,2.3-1.9,4.2-4.2,4.2s-4.2-1.9-4.2-4.2s1.9-4.2,4.2-4.2S49,33.5,49,35.8z"/>
	<path class="st0" d="M7.1,23.5c0.2,0.3,0.6,0.5,1.1,0.5c0.3,0,0.7,0,1.1,0h0c6.6,0,11.9,5.3,11.9,11.9c0,0.6,0,1.1-0.1,1.7
		c0,0.3,0.1,0.7,0.3,0.9c0.2,0.2,0.5,0.4,0.8,0.4c0,0,0,0,0,0l10.3,0c0.3,0,0.5-0.1,0.7-0.3l0.3-0.3c-0.2-0.8-0.3-1.6-0.3-2.4
		c0-6.3,5.1-11.5,11.5-11.5c1.2,0,2.3,0.2,3.4,0.5c1.2-1.5,1.8-3.3,1.8-5.2c0-2.6-1.2-5-3.2-6.6l-7.5-5.9c-0.2-0.2-0.6-0.3-0.9-0.2
		C38,7,37.7,7.1,37.5,7.4c-0.1,0.1-2,3.2,0,6.4c0.1,0.1,0.2,0.3,0.3,0.3l3.6,2.4c0,0.1,0,0.3,0,0.4l-8.2-3.3
		c-5.6-1.7-9.4,2.3-10.9,5.3l-8.3-1.7v-2c0-0.5-0.4-1-0.9-1.1L1.8,12.2c-0.5-0.1-0.9,0.1-1.1,0.5c-0.2,0.4-0.2,0.9,0,1.2L7.1,23.5z"
		/>
</g>
</svg>
