<?xml version="1.0" encoding="utf-8"?>
<!-- Generator: Adobe Illustrator 24.0.1, SVG Export Plug-In . SVG Version: 6.00 Build 0)  -->
<svg version="1.1" id="Слой_1" xmlns="http://www.w3.org/2000/svg" xmlns:xlink="http://www.w3.org/1999/xlink" x="0px" y="0px"
	 viewBox="0 0 54 54" style="enable-background:new 0 0 54 54;" xml:space="preserve">
<style type="text/css">
	.st0{fill:#1DBC0C;}
</style>
<path id="XMLID_46_" class="st0" d="M24.7,51.6l13.7-13.7c2.7-2.7,2.4-6.7-0.3-9.4l-1.6-1.6l3.1-3.1c0.3-0.3,0.3-0.7,0.3-1l-0.1-4.4
	c0-0.3,0.2-0.5,0.5-0.5l3.8,0c1,0,1.7-0.8,1.7-1.7l0-3.8c0-0.3,0.3-0.5,0.5-0.5l4.3,0c0.4,0,0.8-0.1,1-0.3l2-2
	C53.9,9.4,54,9.1,54,8.7l0-8.1C54,0.2,53.7,0,53.3,0l-7.9,0.2c-0.3,0-0.2,0.5-0.4,0.7L27.7,18.2l-2.6-2.6c-2.7-2.7-5.8-2.1-8.4,0.6
	L3,29.9c-2.7,2.7-4.4,6.8-1.7,9.5l12.9,12.9C16.9,55,22,54.3,24.7,51.6z M24.7,37.9c-2.2,2.2-5.8,2.2-8,0c-2.2-2.2-2.2-5.8,0-8
	c2.2-2.2,5.8-2.2,8,0C26.9,32.1,26.9,35.7,24.7,37.9z"/>
</svg>
