<?xml version="1.0" encoding="utf-8"?>
<!-- Generator: Adobe Illustrator 24.0.1, SVG Export Plug-In . SVG Version: 6.00 Build 0)  -->
<svg version="1.1" id="Слой_1" xmlns="http://www.w3.org/2000/svg" xmlns:xlink="http://www.w3.org/1999/xlink" x="0px" y="0px"
	 viewBox="0 0 352 147" style="enable-background:new 0 0 352 147;" xml:space="preserve">
<style type="text/css">
	.st0{fill:#1F8243;}
	.st1{fill:#FFFFFF;}
</style>
<g>
	<g>
		<path d="M62.6,23.9l0.1,41.4c0,1.3-0.6,1.9-1.9,1.9H57c-1.3,0-1.9-0.6-1.9-1.9V31.7l-8,33.7c-0.3,1.2-1.1,1.8-2.3,1.8h-5.6
			c-1.3,0-2-0.6-2.3-1.8l-8.5-33.9v33.8c0,1.3-0.6,1.9-1.9,1.9h-3.8c-1.3,0-1.9-0.6-1.9-1.9V23.9c0-1.3,0.6-1.9,1.9-1.9h8.5
			c1.3,0,2,0.6,2.3,1.8l8.5,32.8l8-32.8c0.3-1.2,1.1-1.8,2.3-1.8h8.5C61.9,22,62.6,22.6,62.6,23.9z"/>
		<path d="M95.7,61.9v3.4c0,1.3-0.6,1.9-1.9,1.9h-17c-2.5,0-4.3-0.4-5.3-1.3c-1-0.9-1.6-2.6-1.6-5.3V39.4c0-2.7,0.5-4.4,1.6-5.3
			c1-0.9,2.8-1.3,5.3-1.3h17c1.3,0,1.9,0.6,1.9,1.9v3.4c0,1.3-0.6,1.9-1.9,1.9H79.5c-0.8,0-1.4,0.1-1.6,0.3
			c-0.2,0.2-0.3,0.7-0.3,1.6v16.3c0,0.9,0.1,1.4,0.3,1.6c0.2,0.2,0.8,0.3,1.6,0.3h14.4C95.1,60,95.7,60.6,95.7,61.9z"/>
		<path d="M133.8,60.6c0,2.7-0.5,4.4-1.6,5.3c-1,0.9-2.8,1.3-5.3,1.3h-18c-2.5,0-4.3-0.4-5.3-1.3c-1-0.9-1.6-2.6-1.6-5.3V28.7
			c0-2.7,0.5-4.4,1.6-5.3c1-0.9,2.8-1.3,5.3-1.3h18c2.5,0,4.3,0.4,5.3,1.3c1,0.9,1.6,2.7,1.6,5.3v4.9c0,1.3-0.6,1.9-1.9,1.9h-3.8
			c-1.3,0-1.9-0.6-1.9-1.9v-2.5c0-0.9-0.1-1.4-0.3-1.6c-0.2-0.2-0.8-0.3-1.6-0.3h-12.9c-0.8,0-1.4,0.1-1.6,0.3
			c-0.2,0.2-0.3,0.7-0.3,1.6v27c0,0.9,0.1,1.4,0.3,1.6c0.2,0.2,0.8,0.3,1.6,0.3h12.9c0.9,0,1.4-0.1,1.6-0.3c0.2-0.2,0.3-0.7,0.3-1.6
			v-6.4H120c-1.3,0-1.9-0.6-1.9-1.9v-3.4c0-1.3,0.6-1.9,1.9-1.9h12c1.3,0,1.9,0.6,1.9,1.9V60.6z"/>
		<path d="M148.3,41.9v23.5c0,1.3-0.6,1.9-1.9,1.9h-3.8c-1.3,0-1.9-0.6-1.9-1.9V39.4c0-2.7,0.5-4.4,1.6-5.3c1-0.9,2.8-1.3,5.3-1.3
			h12.2c1.3,0,1.9,0.6,1.9,1.9v3.4c0,1.3-0.6,1.9-1.9,1.9h-9.6c-0.8,0-1.4,0.1-1.6,0.3C148.4,40.5,148.3,41,148.3,41.9z"/>
		<path d="M194.5,60.6c0,2.7-0.5,4.4-1.6,5.3c-1,0.9-2.8,1.3-5.3,1.3h-15.2c-2.5,0-4.3-0.4-5.3-1.3c-1-0.9-1.6-2.6-1.6-5.3v-8.3
			c0-2.7,0.5-4.4,1.6-5.3c1-0.9,2.8-1.3,5.3-1.3H187v-3.8c0-0.9-0.1-1.4-0.3-1.6c-0.2-0.2-0.8-0.3-1.6-0.3h-17
			c-1.3,0-1.9-0.6-1.9-1.9v-3.4c0-1.3,0.6-1.9,1.9-1.9h19.5c2.5,0,4.3,0.4,5.3,1.3c1,0.9,1.6,2.7,1.6,5.3V60.6z M185.1,60
			c0.8,0,1.4-0.1,1.6-0.3c0.2-0.2,0.3-0.7,0.3-1.6v-5.3h-12c-0.8,0-1.4,0.1-1.6,0.3c-0.2,0.2-0.3,0.7-0.3,1.6v3.4
			c0,0.9,0.1,1.4,0.3,1.6c0.2,0.2,0.8,0.3,1.6,0.3H185.1z"/>
		<path d="M245.4,34.6l-7.8,30.8c-0.3,1.2-1.1,1.8-2.3,1.8H229c-1.2,0-1.9-0.6-2.2-1.8l-4.2-23.6l-4.1,23.6c-0.3,1.2-1,1.8-2.2,1.8
			h-6.1c-1.3,0-2.1-0.6-2.4-1.8l-8.1-30.8c-0.3-1.2,0.1-1.8,1.4-1.8h4.2c1.3,0,2,0.6,2.3,1.8l5.6,24.2l4.4-24.1
			c0.3-1.2,1-1.8,2.2-1.8h5.7c1.2,0,1.9,0.6,2.2,1.8l4.4,24.1l5.6-24.2c0.3-1.2,1.1-1.8,2.3-1.8h4.1
			C245.3,32.8,245.7,33.4,245.4,34.6z"/>
	</g>
	<g>
		<path d="M9,92v11.2c0,0.9-0.5,1.4-1.4,1.4H5c-0.9,0-1.4-0.5-1.4-1.4V73.2c0-0.9,0.5-1.4,1.4-1.4h15.7c1.8,0,3.1,0.3,3.8,0.9
			c0.8,0.6,1.1,1.9,1.1,3.8v10.5c0,1.9-0.4,3.2-1.1,3.8c-0.8,0.6-2,0.9-3.8,0.9H9z M18.9,86.8c0.6,0,1-0.1,1.2-0.2
			c0.2-0.1,0.2-0.5,0.2-1.1v-7.1c0-0.6-0.1-1-0.2-1.2c-0.2-0.1-0.6-0.2-1.2-0.2H9v9.7H18.9z"/>
		<path d="M50.9,99.7c0,1.9-0.4,3.2-1.1,3.8c-0.8,0.6-2,0.9-3.8,0.9h-11c-1.8,0-3.1-0.3-3.8-0.9c-0.8-0.6-1.1-1.9-1.1-3.8V84.4
			c0-1.9,0.4-3.2,1.1-3.8c0.8-0.6,2-0.9,3.8-0.9h11c1.8,0,3.1,0.3,3.8,0.9c0.8,0.6,1.1,1.9,1.1,3.8V99.7z M44,99.3
			c0.6,0,1-0.1,1.2-0.2c0.2-0.1,0.2-0.5,0.2-1.2V86.2c0-0.6-0.1-1-0.2-1.2c-0.2-0.1-0.6-0.2-1.2-0.2h-7.3c-0.6,0-1,0.1-1.2,0.2
			c-0.2,0.1-0.2,0.5-0.2,1.2v11.8c0,0.6,0.1,1,0.2,1.2c0.2,0.1,0.5,0.2,1.2,0.2H44z"/>
		<path d="M87.6,80.9L82,103.2c-0.2,0.9-0.8,1.3-1.7,1.3h-4.5c-0.9,0-1.4-0.4-1.6-1.3l-3-17l-3,17c-0.2,0.9-0.7,1.3-1.6,1.3h-4.4
			c-0.9,0-1.5-0.4-1.8-1.3l-5.9-22.2c-0.2-0.9,0.1-1.3,1-1.3h3c0.9,0,1.5,0.4,1.7,1.3l4,17.5L67.5,81c0.2-0.9,0.7-1.3,1.6-1.3h4.1
			c0.9,0,1.4,0.4,1.6,1.3L78,98.4L82,80.9c0.2-0.9,0.8-1.3,1.7-1.3h2.9C87.6,79.6,87.9,80,87.6,80.9z"/>
		<path d="M110.5,100.6v2.5c0,0.9-0.5,1.4-1.4,1.4H95.5c-1.8,0-3.1-0.3-3.8-0.9c-0.8-0.6-1.1-1.9-1.1-3.8V84.4
			c0-1.9,0.4-3.2,1.1-3.8c0.8-0.6,2-0.9,3.8-0.9h11c1.8,0,3.1,0.3,3.8,0.9c0.8,0.6,1.1,1.9,1.1,3.8v5.7c0,1.9-0.4,3.2-1.1,3.8
			c-0.8,0.6-2,0.9-3.8,0.9H96v3.1c0,0.6,0.1,1,0.2,1.2c0.2,0.1,0.5,0.2,1.2,0.2h11.8C110,99.3,110.5,99.7,110.5,100.6z M104.6,89.6
			c0.6,0,1-0.1,1.2-0.2c0.2-0.1,0.2-0.5,0.2-1.2v-2.1c0-0.6-0.1-1-0.2-1.2c-0.2-0.1-0.6-0.2-1.2-0.2h-7.3c-0.6,0-1,0.1-1.2,0.2
			C96,85.1,96,85.5,96,86.2v3.5H104.6z"/>
		<path d="M121.3,86.2v17c0,0.9-0.5,1.4-1.4,1.4h-2.7c-0.9,0-1.4-0.5-1.4-1.4V84.4c0-1.9,0.4-3.2,1.1-3.8c0.8-0.6,2-0.9,3.8-0.9h8.8
			c0.9,0,1.4,0.5,1.4,1.4v2.5c0,0.9-0.5,1.4-1.4,1.4h-7c-0.6,0-1,0.1-1.2,0.2C121.4,85.1,121.3,85.5,121.3,86.2z"/>
		<path d="M153.3,99.7c0,1.9-0.4,3.2-1.1,3.8c-0.8,0.6-2,0.9-3.8,0.9H136c-0.9,0-1.4-0.5-1.4-1.4v-2.5c0-0.9,0.5-1.4,1.4-1.4h10.5
			c0.6,0,1-0.1,1.2-0.2c0.2-0.1,0.2-0.5,0.2-1.2v-1.8c0-0.6-0.1-1-0.2-1.2c-0.2-0.1-0.6-0.2-1.2-0.2h-7.9c-1.8,0-3.1-0.3-3.8-0.9
			c-0.8-0.6-1.1-1.9-1.1-3.8v-5.6c0-1.9,0.4-3.2,1.1-3.8c0.8-0.6,2-0.9,3.8-0.9h12.3c0.9,0,1.4,0.5,1.4,1.4v2.5
			c0,0.9-0.5,1.4-1.4,1.4h-10.4c-0.6,0-1,0.1-1.2,0.2c-0.2,0.1-0.2,0.5-0.2,1.2v2c0,0.5,0.1,0.9,0.2,1.1c0.1,0.2,0.3,0.3,0.7,0.3
			h8.5c1.8,0,3.1,0.3,3.8,0.9c0.8,0.6,1.1,1.9,1.1,3.8V99.7z"/>
		<path d="M178.6,99.7c0,1.9-0.4,3.2-1.1,3.8c-0.8,0.6-2,0.9-3.8,0.9h-10.5v7.7c0,0.9-0.5,1.4-1.4,1.4H159c-0.9,0-1.4-0.5-1.4-1.4
			V84.4c0-1.9,0.4-3.2,1.1-3.8c0.8-0.6,2-0.9,3.8-0.9h11c1.8,0,3.1,0.3,3.8,0.9c0.8,0.6,1.1,1.9,1.1,3.8V99.7z M171.8,99.3
			c0.6,0,1-0.1,1.2-0.2c0.2-0.1,0.2-0.5,0.2-1.2V86.2c0-0.6-0.1-1-0.2-1.2c-0.2-0.1-0.6-0.2-1.2-0.2h-7.3c-0.6,0-1,0.1-1.2,0.2
			c-0.2,0.1-0.2,0.5-0.2,1.2v13.1H171.8z"/>
		<path d="M204.4,99.7c0,1.9-0.4,3.2-1.1,3.8c-0.8,0.6-2,0.9-3.8,0.9h-11c-1.8,0-3.1-0.3-3.8-0.9c-0.8-0.6-1.1-1.9-1.1-3.8V84.4
			c0-1.9,0.4-3.2,1.1-3.8c0.8-0.6,2-0.9,3.8-0.9h11c1.8,0,3.1,0.3,3.8,0.9c0.8,0.6,1.1,1.9,1.1,3.8V99.7z M197.6,99.3
			c0.6,0,1-0.1,1.2-0.2c0.2-0.1,0.2-0.5,0.2-1.2V86.2c0-0.6-0.1-1-0.2-1.2c-0.2-0.1-0.6-0.2-1.2-0.2h-7.3c-0.6,0-1,0.1-1.2,0.2
			c-0.2,0.1-0.2,0.5-0.2,1.2v11.8c0,0.6,0.1,1,0.2,1.2c0.2,0.1,0.5,0.2,1.2,0.2H197.6z"/>
		<path d="M214.8,86.2v17c0,0.9-0.5,1.4-1.4,1.4h-2.7c-0.9,0-1.4-0.5-1.4-1.4V84.4c0-1.9,0.4-3.2,1.1-3.8c0.8-0.6,2-0.9,3.8-0.9h8.8
			c0.9,0,1.4,0.5,1.4,1.4v2.5c0,0.9-0.5,1.4-1.4,1.4h-7c-0.6,0-1,0.1-1.2,0.2C214.9,85.1,214.8,85.5,214.8,86.2z"/>
		<path d="M240.1,100.6v2.5c0,0.9-0.5,1.4-1.4,1.4h-3.5c-1.8,0-3.1-0.3-3.8-0.9c-0.8-0.6-1.1-1.9-1.1-3.8V84.8h-2.8
			c-0.9,0-1.4-0.5-1.4-1.4V81c0-0.9,0.5-1.4,1.4-1.4h2.8v-8c0-0.9,0.5-1.4,1.4-1.4h2.7c0.9,0,1.4,0.5,1.4,1.4v8h3
			c0.9,0,1.4,0.5,1.4,1.4v2.5c0,0.9-0.5,1.4-1.4,1.4h-3v13.1c0,0.6,0.1,1,0.2,1.2c0.2,0.1,0.5,0.2,1.2,0.2h1.6
			C239.6,99.3,240.1,99.7,240.1,100.6z"/>
		<path d="M262.7,99.7c0,1.9-0.4,3.2-1.1,3.8c-0.8,0.6-2,0.9-3.8,0.9h-12.3c-0.9,0-1.4-0.5-1.4-1.4v-2.5c0-0.9,0.5-1.4,1.4-1.4h10.5
			c0.6,0,1-0.1,1.2-0.2c0.2-0.1,0.2-0.5,0.2-1.2v-1.8c0-0.6-0.1-1-0.2-1.2c-0.2-0.1-0.6-0.2-1.2-0.2h-7.9c-1.8,0-3.1-0.3-3.8-0.9
			c-0.8-0.6-1.1-1.9-1.1-3.8v-5.6c0-1.9,0.4-3.2,1.1-3.8c0.8-0.6,2-0.9,3.8-0.9h12.3c0.9,0,1.4,0.5,1.4,1.4v2.5
			c0,0.9-0.5,1.4-1.4,1.4h-10.4c-0.6,0-1,0.1-1.2,0.2c-0.2,0.1-0.2,0.5-0.2,1.2v2c0,0.5,0.1,0.9,0.2,1.1c0.1,0.2,0.3,0.3,0.7,0.3
			h8.5c1.8,0,3.1,0.3,3.8,0.9c0.8,0.6,1.1,1.9,1.1,3.8V99.7z"/>
	</g>
	<g>
		<path class="st0" d="M86.8,115.9l-8.4,20.6c-0.2,0.5-0.5,0.7-1,0.7h-1.7c-0.5,0-0.8-0.2-0.9-0.7l-1.3-17l-6.7,17
			c-0.2,0.5-0.5,0.7-1,0.7H64c-0.5,0-0.8-0.2-0.9-0.7l-1.9-20.6c0-0.5,0.2-0.7,0.7-0.7h1.2c0.5,0,0.8,0.2,0.8,0.7l1.4,17.5l6.7-17.5
			c0.2-0.5,0.6-0.8,1.1-0.8H75c0.5,0,0.8,0.3,0.8,0.8l1.3,17.5l7-17.5c0.2-0.5,0.6-0.7,1.1-0.7h1.2C86.9,115.2,87,115.4,86.8,115.9z
			"/>
		<path class="st0" d="M99.3,135.7l-0.2,0.9c-0.1,0.5-0.3,0.8-0.9,0.8h-9.4c-1.2,0-2.1-0.2-2.5-0.6c-0.5-0.4-0.6-1.3-0.4-2.6
			l1.7-10.4c0.2-1.3,0.6-2.2,1.2-2.6c0.6-0.4,1.5-0.6,2.7-0.6H99c1.2,0,2.1,0.2,2.5,0.6c0.4,0.4,0.6,1.3,0.4,2.6l-0.6,3.8
			c-0.2,1.3-0.6,2.2-1.2,2.6c-0.6,0.4-1.5,0.6-2.7,0.6h-8.2l-0.4,2.9c-0.1,0.6,0,0.9,0.2,1.1c0.2,0.1,0.9,0.2,1.9,0.2h7.9
			C99.1,134.9,99.3,135.1,99.3,135.7z M97.2,128.4c0.5,0,0.9-0.1,1.1-0.3c0.2-0.2,0.3-0.5,0.4-1l0.5-3c0.1-0.5,0-0.8-0.1-1
			c-0.1-0.2-0.5-0.3-1-0.3h-6.5c-0.5,0-0.9,0.1-1.1,0.3c-0.2,0.2-0.3,0.5-0.4,1l-0.7,4.2H97.2z"/>
		<path class="st0" d="M116,134.1c-0.2,1.3-0.6,2.2-1.2,2.6c-0.6,0.4-1.5,0.6-2.7,0.6h-8.5c-0.5,0-0.7-0.3-0.7-0.8l0.2-0.9
			c0.1-0.5,0.4-0.8,0.9-0.8h8c0.5,0,0.9-0.1,1.1-0.3c0.2-0.2,0.3-0.5,0.4-1l0.3-2.3c0.1-0.5,0.1-0.8-0.1-1c-0.1-0.2-0.5-0.3-1-0.3
			h-6.1c-1.2,0-2.1-0.2-2.5-0.7c-0.5-0.4-0.6-1.3-0.3-2.6l0.5-3.2c0.2-1.3,0.6-2.2,1.2-2.6c0.6-0.4,1.5-0.6,2.7-0.6h8.5
			c0.5,0,0.7,0.3,0.6,0.8l-0.2,0.9c-0.1,0.5-0.4,0.8-0.9,0.8h-8c-0.5,0-0.9,0.1-1.1,0.3c-0.2,0.2-0.3,0.5-0.4,1l-0.4,2.3
			c-0.1,0.5-0.1,0.8,0,1c0.1,0.2,0.4,0.3,0.8,0.3h6.3c1.2,0,2.1,0.2,2.5,0.6c0.4,0.4,0.6,1.3,0.4,2.6L116,134.1z"/>
		<path class="st0" d="M126.9,135.7l-0.2,0.9c-0.1,0.5-0.3,0.8-0.9,0.8h-2.5c-1.2,0-2.1-0.2-2.5-0.6c-0.4-0.4-0.6-1.3-0.4-2.6
			l1.8-11.2h-2c-0.5,0-0.7-0.3-0.6-0.8l0.2-0.9c0.1-0.5,0.4-0.8,0.9-0.8h2l0.9-5.6c0.1-0.5,0.4-0.8,0.9-0.8h1.1
			c0.5,0,0.7,0.3,0.6,0.8l-0.9,5.6h3.3c0.5,0,0.7,0.3,0.6,0.8l-0.2,0.9c-0.1,0.5-0.4,0.8-0.9,0.8h-3.3l-1.7,10.7
			c-0.1,0.5-0.1,0.8,0.1,1c0.1,0.2,0.5,0.3,1,0.3h2C126.8,134.9,127,135.1,126.9,135.7z"/>
		<path class="st0" d="M142.9,135.7l-0.2,0.9c-0.1,0.5-0.3,0.8-0.9,0.8h-9.4c-1.2,0-2.1-0.2-2.5-0.6c-0.5-0.4-0.6-1.3-0.4-2.6
			l1.7-10.4c0.2-1.3,0.6-2.2,1.2-2.6c0.6-0.4,1.5-0.6,2.7-0.6h7.5c1.2,0,2.1,0.2,2.5,0.6c0.4,0.4,0.6,1.3,0.4,2.6l-0.6,3.8
			c-0.2,1.3-0.6,2.2-1.2,2.6c-0.6,0.4-1.5,0.6-2.7,0.6h-8.2l-0.4,2.9c-0.1,0.6,0,0.9,0.2,1.1c0.2,0.1,0.9,0.2,1.9,0.2h7.9
			C142.7,134.9,143,135.1,142.9,135.7z M140.9,128.4c0.5,0,0.9-0.1,1.1-0.3c0.2-0.2,0.3-0.5,0.4-1l0.5-3c0.1-0.5,0-0.8-0.1-1
			c-0.1-0.2-0.5-0.3-1-0.3h-6.5c-0.5,0-0.9,0.1-1.1,0.3c-0.2,0.2-0.3,0.5-0.4,1l-0.7,4.2H140.9z"/>
		<path class="st0" d="M150.9,124.2l-2,12.4c-0.1,0.5-0.3,0.8-0.9,0.8H147c-0.5,0-0.7-0.3-0.7-0.8l2.1-12.9c0.2-1.3,0.6-2.2,1.2-2.6
			c0.6-0.4,1.5-0.6,2.7-0.6h6.1c0.5,0,0.7,0.3,0.6,0.8l-0.2,0.9c-0.1,0.5-0.4,0.8-0.9,0.8h-5.6c-0.5,0-0.9,0.1-1.1,0.3
			C151.1,123.4,151,123.7,150.9,124.2z"/>
		<path class="st0" d="M175.1,123.7l-2.1,12.9c-0.1,0.5-0.3,0.8-0.9,0.8h-1.1c-0.5,0-0.7-0.3-0.7-0.8l2-12.4c0.1-0.5,0-0.8-0.1-1
			c-0.1-0.2-0.5-0.3-1-0.3h-6.5c-0.5,0-0.9,0.1-1.1,0.3c-0.2,0.2-0.3,0.5-0.4,1l-2,12.4c-0.1,0.5-0.3,0.8-0.9,0.8h-1.1
			c-0.5,0-0.7-0.3-0.7-0.8l2.1-12.9c0.2-1.3,0.6-2.2,1.2-2.6c0.6-0.4,1.5-0.6,2.7-0.6h7.5c1.2,0,2.1,0.2,2.5,0.6
			C175.1,121.5,175.3,122.4,175.1,123.7z"/>
		<path class="st0" d="M199,134.1c-0.2,1.3-0.6,2.2-1.2,2.6c-0.6,0.4-1.5,0.6-2.7,0.6h-8.8c-1.2,0-2.1-0.2-2.5-0.6
			c-0.5-0.4-0.6-1.3-0.4-2.6l2.5-15.6c0.2-1.3,0.6-2.2,1.2-2.6c0.6-0.4,1.5-0.6,2.7-0.6h8.8c1.2,0,2.1,0.2,2.5,0.6
			c0.4,0.4,0.6,1.3,0.4,2.6l-0.4,2.6c-0.1,0.5-0.4,0.8-0.9,0.8h-1.1c-0.5,0-0.7-0.3-0.6-0.8l0.3-2.1c0.1-0.5,0-0.8-0.1-1
			c-0.1-0.2-0.5-0.3-1-0.3h-7.9c-0.5,0-0.9,0.1-1.1,0.3c-0.2,0.2-0.3,0.5-0.4,1l-2.3,14.8c-0.1,0.5-0.1,0.8,0.1,1
			c0.1,0.2,0.5,0.3,1,0.3h7.9c0.5,0,0.9-0.1,1.1-0.3c0.2-0.2,0.3-0.5,0.4-0.9l0.8-5h-4.3c-0.5,0-0.7-0.3-0.6-0.8l0.2-0.9
			c0.1-0.5,0.4-0.8,0.9-0.8h6.2c0.5,0,0.7,0.3,0.6,0.8L199,134.1z"/>
		<path class="st0" d="M206.1,128.8l-1.2,7.7c-0.1,0.5-0.3,0.8-0.9,0.8H203c-0.5,0-0.7-0.3-0.7-0.8l3.3-20.6
			c0.1-0.5,0.4-0.8,0.9-0.8h10.8c1.2,0,2.1,0.2,2.5,0.6c0.4,0.4,0.6,1.3,0.4,2.6l-1.1,7.1c-0.2,1.3-0.6,2.2-1.2,2.6
			c-0.6,0.4-1.5,0.6-2.7,0.6H206.1z M215,126.4c0.5,0,0.9-0.1,1.1-0.3c0.2-0.2,0.3-0.5,0.4-0.9l1-6.3c0.1-0.5,0-0.8-0.1-1
			c-0.1-0.2-0.5-0.3-1-0.3h-8.5l-1.4,8.7H215z"/>
		<path class="st0" d="M236.3,134.1c-0.2,1.3-0.6,2.2-1.2,2.6c-0.6,0.4-1.5,0.6-2.7,0.6h-8.5c-1.2,0-2.1-0.2-2.5-0.6
			c-0.5-0.4-0.6-1.3-0.4-2.6l0.4-2.6c0.1-0.5,0.4-0.8,0.9-0.8h1.1c0.5,0,0.7,0.3,0.6,0.8l-0.3,2.1c-0.1,0.5-0.1,0.8,0.1,1
			c0.1,0.2,0.5,0.3,1,0.3h7.5c0.5,0,0.9-0.1,1.1-0.3c0.2-0.2,0.3-0.5,0.4-1l0.8-4.9c0.1-0.5,0-0.8-0.1-1c-0.1-0.2-0.5-0.3-1-0.3h-8
			c-1.2,0-2.1-0.2-2.5-0.6c-0.4-0.4-0.6-1.3-0.4-2.6l0.9-5.8c0.2-1.3,0.6-2.2,1.2-2.6c0.6-0.4,1.5-0.6,2.7-0.6h8.5
			c1.2,0,2.1,0.2,2.5,0.6c0.4,0.4,0.6,1.3,0.4,2.6l-0.4,2.6c-0.1,0.5-0.4,0.8-0.9,0.8h-1.1c-0.5,0-0.7-0.3-0.6-0.8l0.3-2.1
			c0.1-0.5,0-0.8-0.1-1c-0.1-0.2-0.5-0.3-1-0.3h-7.5c-0.5,0-0.9,0.1-1.1,0.3c-0.2,0.2-0.3,0.5-0.4,1l-0.8,5c-0.1,0.5,0,0.8,0.1,1
			c0.1,0.2,0.5,0.3,1,0.3h8c1.2,0,2.1,0.2,2.5,0.6c0.4,0.4,0.6,1.3,0.4,2.6L236.3,134.1z"/>
	</g>
	<g>
		<path class="st0" d="M298.6,133.2c-0.3-0.5-0.6-1-0.9-1.5c-6-10-12-19.9-17.9-29.9c-4.3-7.3-8.2-14.7-11.5-22.5
			c-2.6-6-4.7-12.2-6.2-18.7c-0.7-3.2-1.3-6.5-1.7-9.8c-0.3-3-0.5-6-0.5-9c0-6.2,1-12.1,3.6-17.8c2.5-5.4,5.9-10.1,10.7-13.7
			c3.8-2.8,8-4.6,12.6-5.7c4.4-1,8.9-1.5,13.4-1.3c6.9,0.3,13.5,1.8,19.5,5.4c5.6,3.3,9.7,8.1,12.4,14c1.9,4,3,8.2,3.6,12.5
			c0.5,3.8,0.5,7.6,0.3,11.4c-0.7,12-4,23.4-8.7,34.3c-3.5,8-7.5,15.7-11.9,23.2c-5.5,9.5-11.1,19-16.6,28.5
			C298.8,132.8,298.7,133,298.6,133.2z"/>
		<path class="st1" d="M303.4,41.5c0.1-0.1,0.2-0.1,0.3-0.1c2.6-1,5.2-2,7.8-3c2.7-1,5.4-2.1,8.1-3.1c1.7-0.6,2.9-1.8,3.3-3.6
			c0.4-1.3,0.3-2.7,0.1-4.1c-0.4-2.1-1.7-3.4-3.5-4.2c-1.2-0.6-2.4-1-3.6-1.5c-1.4-0.6-2.8-1.3-3.8-2.6c-1.8-2.2-4.3-2.8-7-2.2
			c-2.3,0.5-3.9,2-5,4c-1.8,3-2,6.4-1.9,9.7c0.1,2.2,0.3,4.4,0.5,6.6c0,0.2,0,0.5,0,0.8c-0.2-0.1-0.2-0.2-0.3-0.3
			c-1.6-1.5-3.2-3-4.8-4.4c-2.4-2.1-4.8-4.1-7.3-6.1c-1.1-0.9-2.3-1.3-3.7-1.2c-3.4,0.2-5.8,2-7.6,4.9c-0.1,0.1-0.1,0.2-0.1,0.3
			c-0.5,1.3-0.4,2.7,0.1,3.9c0.9,2,0.7,3.9,0,5.9c-0.4,1.1-0.9,2.2-1.2,3.4c-0.9,3.4,0.7,6.3,4.1,7.3c2.1,0.6,4.2,0.6,6.3,0.1
			c2-0.4,3.8-1.5,5.5-2.6c2.1-1.3,4.2-2.7,6.3-4c0.4-0.2,0.8-0.4,1.2-0.6c0,0,0.1,0.1,0.1,0.1c-0.5,0.6-1,1.3-1.6,1.9
			c-1.5,1.7-3,3.4-4.5,5.1c-3.9,4.8-7.4,9.9-10.1,15.5c-0.3,0.7-0.7,1.4-1,2.1c0.1,0,0.2,0.1,0.3,0.1c2.4,0.3,4.8,0.6,7.2,0.9
			c0.3,0,0.4-0.1,0.5-0.4c0.4-1.9,0.8-3.9,1.4-5.8c1.6-5.7,3.8-11.1,6.4-16.4c0.4-0.9,0.9-1.8,1.3-2.7c0.1,0.1,0,0.1,0,0.2
			c-1.1,4.9-1.8,9.8-1.4,14.8c0.2,2.3,0.7,4.3,2.2,6.1c0.9,1.1,2,1.7,3.4,1.8c1.3,0,2.4-0.5,3.4-1.3c1-0.8,1.9-1.7,2.9-2.6
			c1-1,2.2-1.7,3.6-1.9c1-0.2,1.9-0.2,2.9-0.3c2.6-0.2,4.4-1.5,5.3-3.9c0.4-1.1,0.7-2.2,0.8-3.4c0.3-2.5-0.5-4.5-2.7-5.9
			c-3.6-2.2-7.3-4.3-11.1-6C305.4,42.4,304.4,42,303.4,41.5z"/>
		<path class="st0" d="M300.3,143.6c-3.1-0.1-6.1-0.2-9.2-0.3c-2.1-0.1-4.3-0.2-6.4-0.4c-2.3-0.2-4.6-0.4-6.9-0.8
			c-3.1-0.5-6.2-1-9.3-1.6c-4-0.8-8-2-11.7-3.9c-1.5-0.8-3-1.6-4.4-2.7c-1.7-1.3-2.8-2.9-2.8-5.1c0-1.2,0.4-2.2,1.1-3.1
			c1-1.5,2.4-2.5,3.9-3.4c3.6-2.1,7.6-3.5,11.7-4.4c4.2-0.8,8.4-1.6,12.7-2.3c0.7-0.1,1.4,0.3,1.6,1c0.2,0.7-0.1,1.4-0.8,1.7
			c-0.7,0.2-1.5,0.3-2.3,0.5c-5.2,0.8-10.3,1.6-15.3,3.3c-2.9,1-5.6,2.2-7.9,4.1c-0.5,0.4-1,0.9-1.4,1.4c-0.6,0.7-0.6,1.6-0.2,2.4
			c0.5,1,1.3,1.7,2.1,2.3c1.9,1.4,4,2.3,6.1,3.1c3.6,1.4,7.3,2.3,11.1,2.9c3.1,0.5,6.3,1,9.4,1.4c2.4,0.3,4.8,0.5,7.2,0.6
			c3.3,0.2,6.7,0.3,10,0.3c4.1,0,8.3-0.2,12.4-0.4c6.2-0.4,12.3-1.2,18.3-2.6c3.4-0.8,6.7-1.7,9.9-3.1c1.9-0.9,3.7-2,5.2-3.5
			c0.7-0.7,1.1-1.4,0.9-2.4c-0.1-0.7-0.5-1.2-1-1.6c-2.2-2.1-4.9-3.4-7.7-4.5c-3.3-1.2-6.7-2-10.1-2.6c-2.5-0.4-5-0.8-7.4-1.2
			c-1.1-0.2-1.7-0.9-1.5-1.8c0.2-0.7,0.8-1.1,1.7-1c4.9,0.6,9.7,1.4,14.5,2.8c3.1,0.9,6.2,2,9.1,3.6c1.5,0.8,2.8,1.8,3.9,3.1
			c1.7,2,1.9,4.6,0.6,6.7c-0.3,0.5-0.7,0.9-1.2,1.3c-3.1,2.8-6.8,4.5-10.7,5.7c-4.1,1.2-8.2,2.1-12.4,2.7c-3.3,0.5-6.6,0.9-10,1.2
			c-2.6,0.3-5.3,0.3-8,0.5C303.7,143.4,302,143.5,300.3,143.6C300.3,143.6,300.3,143.6,300.3,143.6z"/>
	</g>
</g>
</svg>
